<?xml version="1.0" standalone="no"?><!DOCTYPE svg PUBLIC "-//W3C//DTD SVG 1.1//EN" "http://www.w3.org/Graphics/SVG/1.1/DTD/svg11.dtd"><svg t="1630775388925" class="icon" viewBox="0 0 1024 1024" version="1.1" xmlns="http://www.w3.org/2000/svg" p-id="37857" width="200" height="200" xmlns:xlink="http://www.w3.org/1999/xlink"><defs><style type="text/css"></style></defs><path d="M983.373721 452.028117l-0.00307-0.002047c-4.845355-4.164856-11.022031-6.195096-17.394159-5.716188-6.375198 0.478907-12.180414 3.413749-16.361643 8.281617l-13.684674 16.016789c-4.386914-46.924729-16.013719-92.408643-34.665521-135.512347-21.686928-50.121538-52.261271-95.606475-90.87573-135.191028-42.222637-43.284829-91.718935-77.008908-147.115616-100.235912-53.486168-22.425755-110.164029-34.158984-168.459736-34.874275-58.302871-0.709151-115.243721 9.626241-169.263032 30.733978-55.94722 21.86089-106.253976 54.362118-149.524478 96.598059C-1.006933 364.933503-4.494361 649.600915 168.255075 826.696332c83.681888 85.788875 195.754383 133.843334 315.571259 135.310755 0.101307 0.002047 0.201591 0.002047 0.301875 0.002047 6.279007 0 12.20088-2.408863 16.700357-6.801916 2.332115-2.276856 4.15053-4.973268 5.403057-8.018627 1.290389-3.00852 1.941212-6.189979 1.939165-9.463536l-0.093121-59.805084c-0.01842-13.180184-10.749832-23.893176-23.927969-23.893176-0.00921 0-0.01842 0-0.026606 0-6.39771 0.007163-12.405541 2.505054-16.917298 7.033184-4.513804 4.5312-6.990205 10.550287-6.972808 16.937764l0.054235 35.150568c-43.420929-3.092431-85.552491-13.063527-125.377522-29.68202-39.776935-16.59905-76.43688-39.49041-109.104907-68.112284l25.231661-24.628934c9.44-9.214872 9.626241-24.393573 0.413416-33.836643-4.462638-4.574179-10.438747-7.136537-16.82827-7.215332-0.101307-0.002047-0.202615-0.002047-0.303922-0.002047-6.279007 0-12.199856 2.408863-16.70138 6.80294l-25.90602 25.287943c-61.573357-68.27499-97.659227-155.535379-102.401228-247.609401l40.975227 0.502443c6.386454 0.079818 12.429077-2.339278 16.999163-6.800893 4.572132-4.461615 7.133468-10.438747 7.213285-16.832364 0.161682-13.192464-10.437723-24.056905-23.62814-24.218588l-41.190121-0.505513c6.024204-89.793072 41.949414-174.842097 101.972463-241.409189l25.12933 25.76071c4.462638 4.574179 10.438747 7.137561 16.82827 7.216355 6.378268 0.045025 12.431124-2.337231 17.005302-6.801916 9.44-9.214872 9.626241-24.393573 0.414439-33.835619l-25.272593-25.908066c66.214051-57.853639 150.083204-92.341105 238.0947-97.904821l0.166799 32.04381c0.033769 6.392594 2.552126 12.387122 7.092535 16.883529 4.541433 4.496407 10.579963 6.947226 16.95516 6.92062 6.391571-0.033769 12.386098-2.554172 16.879436-7.095605 4.496407-4.542456 6.953366-10.564613 6.918573-16.956184l-0.166799-31.975249c94.108355 5.217838 182.674483 42.998303 251.278977 107.201557l-23.14514 22.592554c-9.44 9.214872-9.625218 24.394596-0.413416 33.836643 4.462638 4.574179 10.43977 7.135514 16.83134 7.214309 6.369058 0.109494 12.429077-2.336208 17.001209-6.800893l22.688745-22.145369c27.565822 32.658817 49.53416 69.105914 65.36573 108.47148 13.595646 33.806967 22.435988 69.195965 26.38595 105.534592l-12.435217-14.517645c-4.170996-4.845355-9.980305-7.773034-16.35755-8.242731-6.376221-0.472767-12.544711 1.567705-17.384949 5.737678-4.845355 4.174066-7.773034 9.992585-8.241708 16.382109-0.467651 6.380314 1.574868 12.55392 5.722328 17.346063l55.010895 64.218604c4.643764 5.393847 11.401678 8.410554 18.489096 8.302083 0.124843 0.002047 0.248663 0.00307 0.372483 0.00307 6.990205 0 13.573133-3.015683 18.150382-8.347109l54.896284-64.247256c3.972475-4.615111 6.021134-10.510378 5.767354-16.597003C991.405651 462.585567 988.378711 456.333166 983.373721 452.028117z" p-id="37858" fill="#e6e6e6"></path><path d="M723.145931 370.062314c2.136663-6.244214 1.583055-13.166881-1.51961-18.996656-3.006474-5.63944-8.024767-9.772574-14.133905-11.638061-6.118348-1.867534-12.591783-1.239224-18.231223 1.769296l-0.903579 0.481977L496.850975 506.734066l-106.582457-65.444525-0.432859-0.25071c-5.622044-3.044336-12.093433-3.714602-18.219967-1.883907-6.120394 1.827625-11.165294 5.928013-14.20656 11.54801-3.045359 5.626137-3.711532 12.104689-1.87572 18.244526 1.804089 6.03546 5.811356 11.017938 11.30037 14.057157l119.976512 73.667813 0.432859 0.249687c3.510964 1.90028 7.368828 2.87549 11.314697 2.87549 1.029446 0 2.065032-0.065492 3.100618-0.199545 3.096525-0.313132 6.066159-1.217734 8.827039-2.690272l0.902556-0.480954 2.082428-1.794879c0.605797-0.477884 1.151219-0.947582 1.654686-1.426489L712.75221 382.873084C717.628264 379.974058 721.296817 375.463324 723.145931 370.062314z" p-id="37859" fill="#e6e6e6"></path><path d="M718.89614 779.449261c5.862521-3.966335 10.901281-8.840342 15.084557-14.598486 8.751315-12.057617 13.18837-26.367531 13.18837-42.530652 0-13.257955-2.717901-24.909319-8.083096-34.640961-5.285377-9.558703-12.389168-17.530258-21.126156-23.696702-8.490372-5.979178-18.23327-10.474562-28.956495-13.361309-10.475586-2.822278-21.369703-4.252861-32.380478-4.252861-13.928221 0-26.747177 2.455935-38.10383 7.302313-11.384281 4.863774-21.195741 11.653411-29.161157 20.181645-7.93574 8.499581-14.127765 18.688641-18.400069 30.27963-3.072989 8.321526-5.058203 17.314341-5.901407 26.723641-0.464581 5.174859 1.276063 10.339486 4.777817 14.169721 3.488451 3.815909 8.452509 6.003737 13.620206 6.003737l4.867868 0c9.706059 0 17.800411-7.631818 18.424628-17.374716 0.363274-5.653767 1.314948-11.016915 2.830465-15.939017 2.100848-6.839779 5.320169-12.777001 9.56996-17.649985 4.187369-4.801353 9.453303-8.599865 15.646352-11.286044 6.308683-2.731204 13.779841-4.115738 22.204721-4.115738 7.130398 0 13.818727 0.837064 19.8767 2.488681 5.643534 1.540076 10.661827 4.015454 14.911618 7.354502 4.182252 3.287883 7.384178 7.272637 9.787924 12.180414 2.362814 4.827959 3.560082 10.972912 3.560082 18.262946 0 6.655584-1.26583 12.372795-3.761674 16.98586-2.603291 4.807493-5.973038 8.795317-10.014074 11.852956-4.200672 3.178389-9.008164 5.578042-14.284331 7.132444-5.495154 1.616824-10.862395 2.436492-15.954367 2.436492l-10.607592 0c-10.18292 0-18.467607 8.28571-18.467607 18.470677l0 1.349741c0 10.184967 8.284687 18.470677 18.467607 18.470677l10.607592 0c7.820106 0 15.202237 1.007957 21.943778 2.997264 6.4192 1.896186 12.102642 4.807493 16.881482 8.648984 4.694929 3.781116 8.275477 8.366551 10.942213 14.003945 2.64934 5.619998 3.991917 12.561084 3.991917 20.632923 0 7.720845-1.546216 14.622022-4.594645 20.518313-3.130294 6.056949-7.357572 11.241019-12.568247 15.412015-5.316076 4.259-11.490705 7.504928-18.355043 9.647731-7.068999 2.209318-14.594393 3.329838-22.36538 3.329838-9.263991 0-17.626449-1.477654-24.857131-4.394077-7.075139-2.849908-13.033851-6.826476-17.714454-11.81714-4.693906-5.008061-8.3072-11.195993-10.739599-18.399045-1.750877-5.172813-2.792603-10.908444-3.094478-17.042141-0.484024-9.930163-8.587586-17.709337-18.447141-17.709337l-5.375427 0c-4.978385 0-9.650801 1.950422-13.154601 5.493108-3.486404 3.524267-5.376451 8.188496-5.322216 13.130042 0.12382 11.526521 1.9934 22.189372 5.556553 31.686676 4.612041 12.310374 11.590989 22.835078 20.74037 31.279401 9.013281 8.329712 19.925818 14.780635 32.432667 19.173688 12.310374 4.327562 25.886577 6.520507 40.348963 6.520507 12.846586 0 25.356504-1.839905 37.187971-5.468548 12.094456-3.714602 22.858614-9.388834 31.991622-16.863063 9.236362-7.560186 16.673751-16.97665 22.104437-27.986401 5.480828-11.103896 8.260128-24.01802 8.260128-38.384216 0-19.325138-5.415336-35.839253-16.09456-49.087998C734.870973 789.591249 727.540008 783.737938 718.89614 779.449261z" p-id="37860" fill="#e6e6e6"></path><path d="M950.629969 696.010921c-8.996908-17.629519-11.544941-20.585851-30.292933-35.145451-12.56006-9.755178-29.667693-14.496156-52.305273-14.496156-0.001023 0-0.007163 0-0.008186 0-20.822235 0-38.232766 4.783956-51.753711 14.219863-13.196557 9.218966-23.577998 21.137413-30.856775 35.426861-7.046486 13.833053-11.889795 29.41903-14.395872 46.320978-2.429329 16.33913-3.66139 32.69054-3.66139 48.599881 0 15.664771 1.232061 31.889291 3.66139 48.218188 2.506077 16.912182 7.350408 32.498158 14.394848 46.322002 7.287987 14.316054 17.688871 26.186406 30.91408 35.282574 13.504572 9.286504 30.897707 13.995759 51.698452 13.995759 21.062711 0 38.531572-4.717442 51.921533-14.022365 13.072737-9.089006 23.397896-20.949124 30.686906-35.253922 7.040347-13.823843 11.884678-29.407774 14.396895-46.322002 2.429329-16.387225 3.66139-32.735565 3.66139-48.594765 0-15.60542-1.232061-31.828916-3.66139-48.223305C962.510554 725.385948 957.665199 709.799972 950.629969 696.010921zM926.659021 790.56339c0 11.094686-0.737804 23.301705-2.193968 36.281321-1.39886 12.487406-4.288676 24.303522-8.585539 35.114752-4.057409 10.190083-10.073426 18.765389-17.883299 25.487487-7.335059 6.318916-17.139356 9.390881-29.972639 9.390881-12.834306 0-22.63758-3.070942-29.974685-9.392928-7.816013-6.727215-13.83203-15.300474-17.881253-25.484418-4.295839-10.794857-7.184633-22.60995-8.586562-35.115776-1.454118-12.968359-2.191922-25.175379-2.191922-36.281321 0-10.857279 0.737804-23.003923 2.192945-36.104289 1.399883-12.613272 4.284583-24.414039 8.573259-35.075867 4.046153-10.063193 10.067286-18.585287 17.893532-25.327852 7.341199-6.320962 17.145495-9.393951 29.973662-9.393951 12.825097 0 22.630417 3.072989 29.971615 9.391904 7.820106 6.738471 13.84124 15.261589 17.893532 25.326828 4.290723 10.682293 7.176446 22.48613 8.574283 35.078936C925.920194 767.570723 926.659021 779.717368 926.659021 790.56339z" p-id="37861" fill="#e6e6e6"></path></svg>